<svg xmlns="http://www.w3.org/2000/svg" width="30" height="18.409" viewBox="0 0 30 18.409"><defs><style>.a{fill:#fff;}</style></defs><g transform="translate(-290.208 -566.628)"><g transform="translate(293.539 568.336)"><path class="a" d="M301.258,589.495H295.65a.555.555,0,1,0,0,1.111h5.609a.555.555,0,0,0,0-1.111Z" transform="translate(-295.094 -575.612)"/><path class="a" d="M313.558,589.495H307.95a.555.555,0,1,0,0,1.111h5.609a.555.555,0,0,0,0-1.111Z" transform="translate(-299.008 -575.612)"/><path class="a" d="M295.65,570.244h13.994a.555.555,0,0,0,0-1.111H295.65a.555.555,0,1,0,0,1.111Z" transform="translate(-295.094 -569.133)"/><path class="a" d="M313.181,573.205h-6.417a.555.555,0,1,0,0,1.111h6.417a.555.555,0,0,0,0-1.111Z" transform="translate(-298.63 -570.429)"/><path class="a" d="M309.814,577.278H296.181a.555.555,0,1,0,0,1.111h13.633a.555.555,0,0,0,0-1.111Z" transform="translate(-295.263 -571.725)"/><path class="a" d="M309.738,581.35h-13.8a.555.555,0,1,0,0,1.111h13.8a.555.555,0,0,0,0-1.111Z" transform="translate(-295.185 -573.02)"/><path class="a" d="M313.558,585.422H307.95a.555.555,0,1,0,0,1.111h5.609a.555.555,0,0,0,0-1.111Z" transform="translate(-299.008 -574.316)"/><path class="a" d="M301.258,585.422H295.65a.555.555,0,1,0,0,1.111h5.609a.555.555,0,0,0,0-1.111Z" transform="translate(-295.094 -574.316)"/></g><path class="a" d="M291.319,585.037v-17.3h19.548v17.3h1.111V570.514h1.666v14.523h1.111V573.875h1.568v11.162h1.111v-8.386H319.1v8.386h1.111v-8.386a1.113,1.113,0,0,0-1.111-1.11h-1.666v-1.666a1.113,1.113,0,0,0-1.11-1.111h-1.568v-2.25a1.113,1.113,0,0,0-1.111-1.11h-1.666v-1.666a1.112,1.112,0,0,0-1.11-1.111H291.319a1.113,1.113,0,0,0-1.111,1.111v17.3Z" transform="translate(0)"/></g></svg>