<svg xmlns="http://www.w3.org/2000/svg" width="30" height="25.369" viewBox="0 0 30 25.369"><defs><style>.a{fill:#fff;}</style></defs><g transform="translate(-240.475 -566.628)"><g transform="translate(244.909 568.982)"><path class="a" d="M253.857,589.495h-7.73a.765.765,0,1,0,0,1.531h7.729a.765.765,0,0,0,0-1.531Z" transform="translate(-245.204 -570.363)"/><path class="a" d="M266.156,589.495h-7.729a.765.765,0,1,0,0,1.531h7.729a.765.765,0,0,0,0-1.531Z" transform="translate(-245.947 -570.363)"/><path class="a" d="M265.412,569.133H246.127a.765.765,0,1,0,0,1.531h19.285a.765.765,0,0,0,0-1.531Z" transform="translate(-245.204 -569.133)"/><path class="a" d="M265.863,573.2h-8.934a.785.785,0,1,0-.346,1.531.794.794,0,0,0,.346,0h8.934a.784.784,0,1,0,0-1.531Z" transform="translate(-245.845 -569.378)"/><path class="a" d="M265.4,577.278H245.96a.765.765,0,1,0,0,1.531H265.4a.765.765,0,0,0,0-1.531Z" transform="translate(-245.194 -569.625)"/><path class="a" d="M265.41,581.35H246.085a.765.765,0,1,0,0,1.531H265.41a.765.765,0,0,0,0-1.531Z" transform="translate(-245.202 -569.871)"/><path class="a" d="M266.156,585.422h-7.729a.765.765,0,1,0,0,1.531h7.729a.765.765,0,0,0,0-1.531Z" transform="translate(-245.947 -570.117)"/><path class="a" d="M253.857,585.422h-7.73a.765.765,0,1,0,0,1.531h7.729a.765.765,0,0,0,0-1.531Z" transform="translate(-245.204 -570.117)"/></g><path class="a" d="M242.006,592V568.159h26.939V592h1.53V568.159a1.534,1.534,0,0,0-1.53-1.531H242.006a1.533,1.533,0,0,0-1.531,1.531V592Z"/></g></svg>