<?xml version="1.0" encoding="utf-8"?>
<!-- Generator: Adobe Illustrator 24.0.2, SVG Export Plug-In . SVG Version: 6.00 Build 0)  -->
<svg version="1.1" id="Ebene_1" xmlns="http://www.w3.org/2000/svg" xmlns:xlink="http://www.w3.org/1999/xlink" x="0px" y="0px"
	 viewBox="0 0 38 38" style="enable-background:new 0 0 38 38;" xml:space="preserve">
<style type="text/css">
	.st0{fill:#FFFFFF;}
</style>
<g>
	<path id="Shape_1_" class="st0" d="M18.27,12.97c-0.38-0.19-0.83-0.14-1.16,0.12l-3.93,3.06h-1.47c-1.22,0-2.21,0.99-2.21,2.21
		v2.21c0,1.22,0.99,2.21,2.21,2.21h1.47l3.93,3.06c0.33,0.26,0.78,0.31,1.16,0.12c0.38-0.19,0.62-0.57,0.62-0.99v-11
		C18.89,13.54,18.65,13.15,18.27,12.97z M10.61,20.57v-2.21c0-0.61,0.49-1.11,1.11-1.11h1.11v4.42h-1.11
		C11.1,21.67,10.61,21.18,10.61,20.57z M17.79,24.96l-3.87-3.01v-4.98l3.87-3.01V24.96z"/>
	<path id="Shape_2_" class="st0" d="M22.28,14.77c-0.1,0.1-0.16,0.24-0.16,0.39s0.06,0.29,0.16,0.39c2.16,2.16,2.16,5.66,0,7.82
		c-0.22,0.22-0.21,0.57,0,0.78c0.22,0.22,0.57,0.21,0.78,0c2.59-2.59,2.59-6.79,0-9.38c-0.1-0.1-0.24-0.16-0.39-0.16
		C22.52,14.61,22.38,14.67,22.28,14.77L22.28,14.77z"/>
	<path id="Shape_3_" class="st0" d="M21.49,16.34c-0.22-0.21-0.56-0.21-0.77,0.01s-0.22,0.56-0.01,0.77
		c0.62,0.62,0.97,1.46,0.97,2.34s-0.35,1.72-0.97,2.34c-0.14,0.14-0.2,0.34-0.15,0.54c0.05,0.19,0.2,0.34,0.39,0.39
		c0.19,0.05,0.4-0.01,0.54-0.15c0.83-0.83,1.29-1.95,1.29-3.13C22.79,18.29,22.32,17.16,21.49,16.34L21.49,16.34z"/>
	<path class="st0" d="M31.03,0c-0.08,0-0.15,0.01-0.22,0.04c-3.55,1.41-6.98,3.13-10.25,5.12c-0.3,0.19-0.39,0.58-0.2,0.87
		c0.19,0.3,0.58,0.39,0.87,0.2c2.93-1.79,5.99-3.35,9.16-4.68v24.59c-3.72,1.38-7.32,3.07-10.77,5.05v-2.38v-0.35
		c-0.07-0.24-0.26-0.42-0.52-0.47c-0.04-0.01-0.08-0.02-0.12-0.02s-0.08,0.02-0.12,0.02c-0.25,0.05-0.45,0.23-0.52,0.47v0.35v3.48
		c0,0.35,0.28,0.63,0.63,0.63c0.11,0,0.23-0.03,0.33-0.09c3.79-2.24,7.78-4.13,11.91-5.64c0.26-0.09,0.43-0.33,0.43-0.6V0.63
		C31.67,0.28,31.38,0,31.03,0z"/>
	<path class="st0" d="M37.37,9.5c-0.35,0-0.63,0.28-0.63,0.63v24.7c0,1.05-0.85,1.9-1.9,1.9h-15.2v-1.46
		c1.83-0.65,3.76-1.02,5.7-1.08c3.14-0.04,6.28,0.38,9.3,1.23c0.33,0.11,0.69-0.07,0.8-0.4c0.02-0.06,0.03-0.13,0.03-0.2V6.97
		c0-0.3-0.21-0.56-0.5-0.62c0,0-0.5-0.11-1.35-0.27c-0.34-0.06-0.67,0.17-0.73,0.52c-0.06,0.34,0.17,0.67,0.51,0.73
		c0.32,0.06,0.6,0.11,0.8,0.15v26.51c-2.9-0.72-5.88-1.08-8.87-1.06c-2.15,0.06-4.29,0.47-6.31,1.21c-1.81-0.78-3.75-1.19-5.72-1.21
		c-3.2,0-6.38,0.37-9.5,1.09V7.46c3.11-0.74,6.3-1.12,9.5-1.12c1.74,0.02,3.46,0.38,5.07,1.04v2.84v0.35
		c0.05,0.19,0.18,0.36,0.37,0.44c0.08,0.04,0.17,0.06,0.27,0.06s0.19-0.02,0.27-0.06c0.18-0.08,0.31-0.24,0.37-0.44v-0.35V6.97
		c0-0.24-0.14-0.46-0.35-0.57c-1.88-0.86-3.92-1.32-5.98-1.33C9.82,5.06,6.36,5.49,2.99,6.36C2.72,6.44,2.53,6.68,2.53,6.97v27.87
		c0,0.35,0.28,0.63,0.63,0.63c0.06,0,0.12-0.01,0.17-0.03c3.26-0.82,6.6-1.24,9.96-1.24c1.74,0.02,3.46,0.38,5.07,1.04v1.49H3.17
		c-1.05,0-1.9-0.85-1.9-1.9v-24.7c0-0.35-0.28-0.63-0.63-0.63C0.28,9.5,0,9.78,0,10.13v24.7C0,36.58,1.42,38,3.17,38h31.67
		c1.75,0,3.16-1.42,3.17-3.17v-24.7C38,9.78,37.72,9.5,37.37,9.5z"/>
</g>
</svg>
