<?xml version="1.0" encoding="utf-8"?>
<!-- Generator: Adobe Illustrator 24.0.2, SVG Export Plug-In . SVG Version: 6.00 Build 0)  -->
<svg version="1.1" id="Ebene_1" xmlns="http://www.w3.org/2000/svg" xmlns:xlink="http://www.w3.org/1999/xlink" x="0px" y="0px"
	 viewBox="0 0 38 38" style="enable-background:new 0 0 38 38;" xml:space="preserve">
<style type="text/css">
	.st0{fill:#FFFFFF;}
</style>
<g>
	<path class="st0" d="M36.16,17.16h-1.84v-0.61c0-1.02-0.82-1.84-1.84-1.84v-1.23C32.49,6.04,26.45,0,19,0S5.52,6.03,5.52,13.48
		c0,0,0,0,0,0.01v1.23c-1.02,0-1.84,0.82-1.84,1.84v0.61H1.84C0.82,17.16,0,17.99,0,19v4.9c0,1.02,0.82,1.84,1.84,1.84h1.84v0.61
		c0,1.02,0.82,1.84,1.84,1.84H9.2c1.02,0,1.84-0.82,1.84-1.84v-9.8c0-1.01-0.82-1.84-1.84-1.84v-1.23c0-5.42,4.39-9.81,9.81-9.81
		s9.81,4.39,9.81,9.81v1.23c-1.02,0-1.84,0.82-1.84,1.84v9.81c0,1.02,0.82,1.84,1.84,1.84h3.68c1.02,0,1.84-0.82,1.84-1.84v-0.61
		h1.84c1.02,0,1.84-0.83,1.84-1.84V19C38,17.99,37.18,17.16,36.16,17.16z M1.84,24.52c-0.34,0-0.61-0.27-0.61-0.61l0,0V19
		c0-0.34,0.27-0.61,0.61-0.61l0,0h1.84v6.13H1.84z M9.81,16.55v9.81c0,0.34-0.27,0.61-0.61,0.61l0,0H5.52
		c-0.34,0-0.61-0.27-0.61-0.61l0,0v-9.81c0-0.34,0.27-0.61,0.61-0.61H9.2C9.53,15.94,9.81,16.21,9.81,16.55L9.81,16.55z M19,2.45
		C12.91,2.46,7.98,7.4,7.97,13.49v1.23H6.74v-1.23C6.74,6.72,12.23,1.23,19,1.23s12.26,5.49,12.26,12.26v1.23h-1.23v-1.23
		C30.02,7.4,25.09,2.46,19,2.45z M33.1,26.35c0,0.34-0.27,0.61-0.61,0.61h-3.68c-0.34,0-0.61-0.27-0.61-0.61l0,0v-9.8
		c0-0.34,0.27-0.61,0.61-0.61l0,0h3.68c0.34,0,0.61,0.27,0.61,0.61V26.35z M36.77,23.9c0,0.34-0.27,0.61-0.61,0.61h-1.84v-6.13h1.84
		c0.34,0,0.61,0.27,0.61,0.61V23.9z"/>
	<path class="st0" d="M17.77,13.49h-4.9c-0.34,0-0.61,0.27-0.61,0.61l0,0v23.29c0,0.34,0.27,0.61,0.61,0.61l0,0h4.9
		c0.34,0,0.61-0.27,0.61-0.61l0,0V14.1C18.39,13.76,18.11,13.48,17.77,13.49z M17.16,14.71v2.45h-3.68v-2.45H17.16z M13.48,19.61
		v-1.23h3.67v1.23H13.48z M17.16,20.84v13.48h-3.68V20.84H17.16z M13.48,36.77v-1.23h3.67v1.23H13.48z M25.13,20.23h-4.9
		c-0.34,0-0.61,0.27-0.61,0.61l0,0v16.55c0,0.34,0.27,0.61,0.61,0.61l0,0h4.9c0.34,0,0.61-0.27,0.61-0.61l0,0V20.84
		C25.74,20.5,25.47,20.23,25.13,20.23L25.13,20.23z M24.52,21.45v2.45h-3.68v-2.45H24.52z M20.84,26.35v-1.23h3.67v1.23H20.84z
		 M24.52,27.58v6.75h-3.68v-6.74L24.52,27.58z M20.84,36.77v-1.23h3.67v1.23H20.84z"/>
</g>
</svg>
