<svg xmlns="http://www.w3.org/2000/svg" width="30" height="26.247" viewBox="0 0 30 26.247"><defs><style>.a{fill:#333;}</style></defs><g transform="translate(-1252.276 -573.128)"><g transform="translate(1263.527 573.128)"><path class="a" d="M1259.465,588.83l14,10.14a1.947,1.947,0,0,0,2.373,0,3.151,3.151,0,0,0,1.187-2.578V576.11a3.148,3.148,0,0,0-1.187-2.578,1.941,1.941,0,0,0-2.373,0l-14,10.14a3.394,3.394,0,0,0-.371,4.786A3.471,3.471,0,0,0,1259.465,588.83Z" transform="translate(-1258.278 -573.128)"/></g><path class="a" d="M1256.025,573.129h0a3.749,3.749,0,0,1,3.749,3.749v18.746a3.751,3.751,0,0,1-3.749,3.749h0a3.75,3.75,0,0,1-3.749-3.749V576.878A3.748,3.748,0,0,1,1256.025,573.129Z" transform="translate(0 0.001)"/></g></svg>