<?xml version="1.0" encoding="utf-8"?>
<!-- Generator: Adobe Illustrator 24.0.2, SVG Export Plug-In . SVG Version: 6.00 Build 0)  -->
<svg version="1.1" id="Ebene_1" xmlns="http://www.w3.org/2000/svg" xmlns:xlink="http://www.w3.org/1999/xlink" x="0px" y="0px"
	 viewBox="0 0 38 38" style="enable-background:new 0 0 38 38;" xml:space="preserve">
<g>
	<path d="M19,0h-8.23c-0.35,0-0.63,0.28-0.63,0.63v4.43h-9.5C0.28,5.07,0,5.35,0,5.7v31.67C0,37.72,0.28,38,0.63,38H19
		c0.35,0,0.63-0.28,0.63-0.63V0.63C19.63,0.28,19.35,0,19,0z M18.37,32.93H11.4v-1.27h6.97C18.37,31.66,18.37,32.93,18.37,32.93z
		 M1.27,9.5h8.87v19H1.27V9.5z M18.37,6.97H11.4v-1.9h6.97C18.37,5.07,18.37,6.97,18.37,6.97z M1.27,29.77h8.87v1.9H1.27V29.77z
		 M11.4,30.4V8.23h6.97V30.4H11.4z M18.37,1.27V3.8H11.4V1.27H18.37z M10.13,6.33v1.9H1.27v-1.9C1.27,6.33,10.13,6.33,10.13,6.33z
		 M1.27,32.93h8.87v3.8H1.27V32.93z M11.4,36.73V34.2h6.97v2.53H11.4z"/>
	<path d="M37.98,34.67l-7.6-29.13c-0.04-0.16-0.15-0.3-0.29-0.39c-0.15-0.08-0.32-0.11-0.48-0.06l-9.5,2.53
		c-0.34,0.09-0.54,0.43-0.45,0.77l7.6,29.13c0.04,0.16,0.15,0.3,0.29,0.39c0.15,0.08,0.32,0.11,0.48,0.06l9.5-2.53
		C37.87,35.35,38.07,35.01,37.98,34.67z M22.05,12.55l8.28-2.21l0.3,1.14l-8.28,2.21L22.05,12.55z M30.94,12.71l3.67,14.09
		l-8.27,2.21l-3.67-14.09L30.94,12.71z M34.94,28.03l0.65,2.49l-8.28,2.21l-0.65-2.48L34.94,28.03z M29.31,6.48L30,9.12l-8.28,2.21
		l-0.69-2.64L29.31,6.48z M28.32,36.59l-0.69-2.64l8.28-2.21l0.69,2.64L28.32,36.59z"/>
	<path d="M8.23,11.4H3.17c-0.35,0-0.63,0.28-0.63,0.63v5.07c0,0.35,0.28,0.63,0.63,0.63h5.07c0.35,0,0.63-0.28,0.63-0.63v-5.07
		C8.87,11.68,8.58,11.4,8.23,11.4z M7.6,16.47H3.8v-3.8h3.8V16.47z"/>
</g>
</svg>
