<?xml version="1.0" encoding="utf-8"?>
<!-- Generator: Adobe Illustrator 24.0.2, SVG Export Plug-In . SVG Version: 6.00 Build 0)  -->
<svg version="1.1" id="Ebene_1" xmlns="http://www.w3.org/2000/svg" xmlns:xlink="http://www.w3.org/1999/xlink" x="0px" y="0px"
	 viewBox="0 0 38 38" style="enable-background:new 0 0 38 38;" xml:space="preserve">
<g>
	<g>
		<g>
			<path id="Shape_11_" d="M25.72,7.83c-0.38-0.19-0.83-0.14-1.16,0.12l-3.93,3.06h-1.47c-1.22,0-2.21,0.99-2.21,2.21v2.21
				c0,1.22,0.99,2.21,2.21,2.21h1.47l3.93,3.06c0.33,0.26,0.78,0.31,1.16,0.12c0.38-0.19,0.62-0.57,0.62-0.99v-11
				C26.34,8.4,26.1,8.02,25.72,7.83z M18.06,15.43v-2.21c0-0.61,0.49-1.11,1.11-1.11h1.11v4.42h-1.11
				C18.55,16.54,18.06,16.04,18.06,15.43z M25.24,19.83l-3.87-3.01v-4.98l3.87-3.01V19.83z"/>
			<path id="Shape_10_" d="M29.73,9.64c-0.1,0.1-0.16,0.24-0.16,0.39c0,0.15,0.06,0.29,0.16,0.39c2.16,2.16,2.16,5.66,0,7.82
				c-0.22,0.22-0.21,0.57,0,0.78c0.22,0.22,0.57,0.21,0.78,0c2.59-2.59,2.59-6.79,0-9.38c-0.1-0.1-0.24-0.16-0.39-0.16
				C29.97,9.47,29.83,9.53,29.73,9.64L29.73,9.64z"/>
			<path id="Shape_8_" d="M28.94,11.2c-0.22-0.21-0.56-0.21-0.77,0.01c-0.21,0.21-0.22,0.56-0.01,0.77
				c0.62,0.62,0.97,1.46,0.97,2.34c0,0.88-0.35,1.72-0.97,2.34c-0.14,0.14-0.2,0.34-0.15,0.54s0.2,0.34,0.39,0.39
				c0.19,0.05,0.4-0.01,0.54-0.15c0.83-0.83,1.29-1.95,1.29-3.13S29.77,12.03,28.94,11.2L28.94,11.2z"/>
		</g>
		<g id="Page-1_1_">
			<g id="_x30_32---Book_1_" transform="translate(-1)">
				<path d="M26.33,30.4h-9.58h-1.19h-7.6c-0.35,0-0.63,0.28-0.63,0.63c0,0.35,0.28,0.63,0.63,0.63h7.6h1.19h9.58
					c0.35,0,0.63-0.28,0.63-0.63C26.97,30.68,26.68,30.4,26.33,30.4z"/>
				<path id="Shape_7_" d="M37.1,0H12.4C9.95,0,7.97,1.99,7.97,4.43v19.63c-1.93,0-3.78,0.81-5.1,2.22s-1.99,3.32-1.85,5.24
					c0.33,3.69,3.44,6.51,7.15,6.47H37.1c1.05,0,1.9-0.85,1.9-1.9V1.9C39,0.85,38.15,0,37.1,0z M9.23,4.43
					c0-1.75,1.42-3.16,3.17-3.17v22.8H9.23V4.43z M2.28,31.44c-0.11-1.58,0.43-3.13,1.51-4.29s2.59-1.82,4.17-1.82H31.4
					c0.35,0,0.63,0.28,0.63,0.63s-0.28,0.63-0.63,0.63H7.97c-2.4,0-4.37,1.92-4.43,4.32c-0.02,1.17,0.43,2.3,1.26,3.13
					c0.88,0.9,2.08,1.41,3.34,1.42H31.4c0.35,0,0.63,0.28,0.63,0.63c0,0.35-0.28,0.63-0.63,0.63H8.16
					C5.12,36.78,2.56,34.47,2.28,31.44z M29.35,27.87c-0.64,2.06-0.64,4.27,0,6.33H8.13c-0.92,0-1.79-0.38-2.43-1.03
					c-0.59-0.59-0.91-1.39-0.9-2.22c0.05-1.72,1.45-3.08,3.17-3.08H29.35z M37.73,36.1c0,0.35-0.28,0.63-0.63,0.63h-3.92
					c0.08-0.2,0.11-0.42,0.12-0.63c0-1.05-0.85-1.9-1.9-1.9h-0.7c-0.76-2.04-0.76-4.29,0-6.33h0.7c1.05,0,1.9-0.85,1.9-1.9
					s-0.85-1.9-1.9-1.9H13.67V1.27H37.1c0.35,0,0.63,0.28,0.63,0.63V36.1z"/>
			</g>
		</g>
	</g>
	<path d="M6.95,2.52C6.9,2.38,6.78,2.28,6.63,2.27L4.62,2.09L3.82,0.22C3.77,0.09,3.63,0,3.48,0C3.33,0,3.2,0.09,3.14,0.22
		L2.35,2.09L0.34,2.27C0.19,2.28,0.06,2.38,0.02,2.52c-0.05,0.14,0,0.3,0.11,0.39l1.52,1.33L1.2,6.22c-0.03,0.15,0.02,0.3,0.14,0.38
		c0.06,0.05,0.14,0.07,0.22,0.07c0.07,0,0.13-0.02,0.19-0.05l1.73-1.04l1.73,1.04C5.34,6.7,5.5,6.69,5.62,6.61
		C5.75,6.52,5.8,6.37,5.77,6.22L5.32,4.25l1.52-1.33C6.95,2.82,6.99,2.66,6.95,2.52z"/>
</g>
</svg>
