<svg xmlns="http://www.w3.org/2000/svg" width="30" height="32.482">
  <defs/>
  <path d="M9.501 13.345a.913.913 0 0 0 0 1.3l4.855 4.855a.921.921 0 0 0 .644.271.893.893 0 0 0 .644-.271l4.855-4.855a.92.92 0 0 0-1.3-1.3l-3.289 3.289V.915a.915.915 0 1 0-1.831 0v15.719l-3.289-3.289a.913.913 0 0 0-1.289 0z" class="a"/>
  <path d="M29.966 20.845L26.779 9.317a.928.928 0 0 0-.5-.59l-.088-.041a.933.933 0 0 0-.38-.081h-5.745a.915.915 0 1 0 0 1.831h5.127l2.692 9.751h-7.12a.912.912 0 0 0-.915.915v.827a2.2 2.2 0 0 1-2.2 2.2h-5.586a2.2 2.2 0 0 1-2.2-2.2v-.827a.912.912 0 0 0-.915-.915h-6.84l2.706-9.772h5.127a.915.915 0 1 0 0-1.831h-5.75a.933.933 0 0 0-.38.081l-.088.041a.909.909 0 0 0-.5.59L.034 20.825a1.009 1.009 0 0 0-.034.244v4.808a6.613 6.613 0 0 0 6.6 6.6h16.8a6.613 6.613 0 0 0 6.6-6.6v-4.792a.709.709 0 0 0-.034-.24zm-1.8 5.032a4.781 4.781 0 0 1-4.774 4.774H6.6a4.781 4.781 0 0 1-4.774-4.774v-3.858h6.218a4.031 4.031 0 0 0 4.028 3.933h5.588a4.031 4.031 0 0 0 4.028-3.933h6.49v3.858z" class="a"/>
</svg>
