<svg xmlns="http://www.w3.org/2000/svg" width="30" height="30"><defs><clipPath id="a"><path fill="#333" d="M0 0h30v30H0z" transform="translate(6185 317)"/></clipPath></defs><g clip-path="url(#a)" transform="translate(-6185 -317)"><path fill="#333" d="M6202.004 347h-4.8a1.457 1.457 0 0 1-1.457-1.455v-10.836h-2.8a1.457 1.457 0 0 1-1.461-1.456v-4.643a1.457 1.457 0 0 1 1.455-1.455h2.806v-2.325a7.917 7.917 0 0 1 2.091-5.673 7.54 7.54 0 0 1 5.559-2.157l3.664.006a1.457 1.457 0 0 1 1.453 1.455v4.311a1.457 1.457 0 0 1-1.455 1.455h-2.467c-.752 0-.944.151-.985.2-.068.077-.148.293-.148.892v1.837h3.414a1.479 1.479 0 0 1 .72.183 1.46 1.46 0 0 1 .754 1.271v4.643a1.457 1.457 0 0 1-1.455 1.455h-3.433v10.837a1.457 1.457 0 0 1-1.455 1.455zm-4.5-1.759h4.2v-11.32a.973.973 0 0 1 .972-.972h3.91v-4.036h-3.914a.973.973 0 0 1-.971-.972v-2.623a3 3 0 0 1 .588-2.056 2.981 2.981 0 0 1 2.3-.792h2.163v-3.7l-3.359-.005c-3.634 0-5.893 2.326-5.893 6.071v3.112a.973.973 0 0 1-.971.972h-3.282v4.03h3.285a.973.973 0 0 1 .971.972zm9.553-26.476zm0 0"/></g></svg>
