<svg xmlns="http://www.w3.org/2000/svg" width="30" height="26.18" viewBox="0 0 30 26.18"><defs><style>.a{fill:#333;}</style></defs><g transform="translate(-1363.813 -573.146)"><g transform="translate(1363.813 573.147)"><path class="a" d="M1381.375,583.664l-14-10.115a1.952,1.952,0,0,0-2.373,0,3.141,3.141,0,0,0-1.187,2.572v20.231a3.14,3.14,0,0,0,1.187,2.57,1.947,1.947,0,0,0,2.373,0l14-10.114a3.381,3.381,0,0,0,.371-4.775A3.312,3.312,0,0,0,1381.375,583.664Z" transform="translate(-1363.813 -573.147)"/></g><path class="a" d="M1379.565,599.325h0a3.746,3.746,0,0,1-3.749-3.74v-18.7a3.745,3.745,0,0,1,3.749-3.74h0a3.744,3.744,0,0,1,3.749,3.74v18.7A3.745,3.745,0,0,1,1379.565,599.325Z" transform="translate(10.498)"/></g></svg>