<svg xmlns="http://www.w3.org/2000/svg" width="30.399" height="18.593" viewBox="0 0 30.399 18.593"><defs><style>.a,.c{fill:#333;}.b,.c{stroke:none;}</style></defs><g transform="translate(0.2 -96.216)"><g class="a" transform="translate(456 8305)"><path class="b" d="M -441.2017517089844 -8190.29052734375 C -446.3706359863281 -8190.29052734375 -451.2936096191406 -8193.1298828125 -455.8338928222656 -8198.7294921875 C -456.1749877929688 -8199.154296875 -456.1888427734375 -8199.7578125 -455.8678894042969 -8200.197265625 C -455.8560180664063 -8200.21484375 -454.35107421875 -8202.2958984375 -451.6923828125 -8204.423828125 C -450.1712951660156 -8205.640625 -448.5794067382813 -8206.6201171875 -446.9608764648438 -8207.333984375 C -444.9120178222656 -8208.2294921875 -442.838623046875 -8208.6826171875 -440.7979736328125 -8208.6826171875 C -435.640380859375 -8208.6826171875 -430.7174377441406 -8205.8447265625 -426.1658935546875 -8200.24609375 C -425.8248901367188 -8199.8193359375 -425.8110656738281 -8199.21484375 -426.1318359375 -8198.7763671875 C -426.1456604003906 -8198.7568359375 -427.6613464355469 -8196.669921875 -430.3073120117188 -8194.5498046875 C -431.8339233398438 -8193.330078125 -433.4258117675781 -8192.3515625 -435.0388488769531 -8191.64013671875 C -437.0897521972656 -8190.74462890625 -439.1631469726563 -8190.29052734375 -441.2017517089844 -8190.29052734375 Z M -453.3482666015625 -8199.49609375 C -449.4641723632813 -8194.9833984375 -445.3777770996094 -8192.6943359375 -441.2017517089844 -8192.6943359375 C -437.3173522949219 -8192.6943359375 -433.9763793945313 -8194.705078125 -431.8576965332031 -8196.3916015625 C -430.3387451171875 -8197.59765625 -429.219482421875 -8198.814453125 -428.6575927734375 -8199.4716796875 C -432.5417175292969 -8203.984375 -436.6281127929688 -8206.2734375 -440.8041381835938 -8206.2734375 C -444.6881408691406 -8206.2734375 -448.0281677246094 -8204.263671875 -450.1461791992188 -8202.578125 C -451.685791015625 -8201.34765625 -452.7947082519531 -8200.1435546875 -453.3482666015625 -8199.49609375 Z M -441.0060424804688 -8194.2158203125 C -443.9112243652344 -8194.2158203125 -446.2747802734375 -8196.5791015625 -446.2747802734375 -8199.4833984375 C -446.2747802734375 -8202.3876953125 -443.9112243652344 -8204.75 -441.0060424804688 -8204.75 C -440.3431701660156 -8204.75 -439.8038940429688 -8204.2109375 -439.8038940429688 -8203.5478515625 C -439.8038940429688 -8202.88671875 -440.3431701660156 -8202.3486328125 -441.0060424804688 -8202.3486328125 C -442.5855102539063 -8202.3486328125 -443.8704833984375 -8201.0634765625 -443.8704833984375 -8199.4833984375 C -443.8704833984375 -8197.904296875 -442.5855102539063 -8196.619140625 -441.0060424804688 -8196.619140625 C -439.4277038574219 -8196.619140625 -438.1436462402344 -8197.904296875 -438.1436462402344 -8199.4833984375 C -438.1436462402344 -8200.146484375 -437.6034240722656 -8200.685546875 -436.9394226074219 -8200.685546875 C -436.2765502929688 -8200.685546875 -435.7372741699219 -8200.146484375 -435.7372741699219 -8199.4833984375 C -435.7372741699219 -8196.5791015625 -438.100830078125 -8194.2158203125 -441.0060424804688 -8194.2158203125 Z"/><path class="c" d="M -441.2017517089844 -8190.390625 C -439.16845703125 -8190.390625 -437.1124877929688 -8190.84375 -435.0791931152344 -8191.7314453125 C -433.4805603027344 -8192.4365234375 -431.894287109375 -8193.41015625 -430.3698425292969 -8194.6279296875 C -427.7926635742188 -8196.6923828125 -426.2743835449219 -8198.748046875 -426.2125854492188 -8198.8349609375 C -425.9179992675781 -8199.23828125 -425.9303588867188 -8199.791015625 -426.2434997558594 -8200.1826171875 C -430.7736206054688 -8205.7548828125 -435.6662902832031 -8208.5830078125 -440.7979736328125 -8208.5830078125 C -442.8312683105469 -8208.5830078125 -444.8892822265625 -8208.1298828125 -446.9205322265625 -8207.2421875 C -448.5191650390625 -8206.537109375 -450.1054382324219 -8205.5654296875 -451.6298828125 -8204.345703125 C -454.2091064453125 -8202.28125 -455.7273864746094 -8200.2255859375 -455.7871398925781 -8200.138671875 C -456.0817260742188 -8199.7353515625 -456.0693664550781 -8199.1826171875 -455.7562255859375 -8198.7919921875 C -451.2322998046875 -8193.212890625 -446.3334045410156 -8190.390625 -441.2017517089844 -8190.390625 M -440.8041381835938 -8206.373046875 C -436.57275390625 -8206.373046875 -432.4463806152344 -8204.05078125 -428.5260620117188 -8199.4716796875 C -429.1440734863281 -8198.7421875 -430.2771301269531 -8197.5185546875 -431.79541015625 -8196.3134765625 C -433.9275817871094 -8194.6162109375 -437.2834777832031 -8192.5947265625 -441.2017517089844 -8192.5947265625 C -445.4331665039063 -8192.5947265625 -449.5595092773438 -8194.9169921875 -453.4798278808594 -8199.49609375 C -452.86181640625 -8200.2255859375 -451.7267150878906 -8201.443359375 -450.2084350585938 -8202.65625 C -448.0783081054688 -8204.3515625 -444.7224426269531 -8206.373046875 -440.8041381835938 -8206.373046875 M -441.0060424804688 -8194.3154296875 C -438.15283203125 -8194.3154296875 -435.8372802734375 -8196.63671875 -435.8372802734375 -8199.4833984375 C -435.8372802734375 -8200.08984375 -436.3337707519531 -8200.5859375 -436.9394226074219 -8200.5859375 C -437.5471496582031 -8200.5859375 -438.0436401367188 -8200.08984375 -438.0436401367188 -8199.4833984375 C -438.0436401367188 -8197.84765625 -439.3703308105469 -8196.51953125 -441.0060424804688 -8196.51953125 C -442.6417541503906 -8196.51953125 -443.9704895019531 -8197.84765625 -443.9704895019531 -8199.4833984375 C -443.9704895019531 -8201.1171875 -442.6417541503906 -8202.4482421875 -441.0060424804688 -8202.4482421875 C -440.4003601074219 -8202.4482421875 -439.9039001464844 -8202.9423828125 -439.9039001464844 -8203.5478515625 C -439.9039001464844 -8204.15625 -440.4003601074219 -8204.650390625 -441.0060424804688 -8204.650390625 C -443.8592529296875 -8204.650390625 -446.1747741699219 -8202.3310546875 -446.1747741699219 -8199.4833984375 C -446.1747741699219 -8196.63671875 -443.8592529296875 -8194.3154296875 -441.0060424804688 -8194.3154296875 M -441.2017517089844 -8190.1904296875 C -446.4022521972656 -8190.1904296875 -451.3513488769531 -8193.0419921875 -455.9115905761719 -8198.666015625 C -456.2812194824219 -8199.126953125 -456.2961730957031 -8199.78125 -455.9486389160156 -8200.2568359375 L -455.9486389160156 -8200.2568359375 C -455.8678894042969 -8200.3681640625 -454.3628234863281 -8202.4140625 -451.7548522949219 -8204.501953125 C -450.2270202636719 -8205.724609375 -448.6276550292969 -8206.7080078125 -447.0012512207031 -8207.4248046875 C -444.9393615722656 -8208.326171875 -442.8524780273438 -8208.783203125 -440.7979736328125 -8208.783203125 C -435.6087951660156 -8208.783203125 -430.6597595214844 -8205.931640625 -426.0883178710938 -8200.30859375 C -425.7186584472656 -8199.8466796875 -425.7037658691406 -8199.1923828125 -426.0510864257813 -8198.716796875 C -426.0642395019531 -8198.6982421875 -427.5882263183594 -8196.599609375 -430.2448120117188 -8194.4716796875 C -431.7782592773438 -8193.2470703125 -433.3775634765625 -8192.263671875 -434.9984741210938 -8191.54833984375 C -437.0624389648438 -8190.6474609375 -439.1492919921875 -8190.1904296875 -441.2017517089844 -8190.1904296875 Z M -453.21630859375 -8199.49609375 C -449.3688659667969 -8195.0498046875 -445.3273010253906 -8192.794921875 -441.2017517089844 -8192.794921875 C -437.3462219238281 -8192.794921875 -434.0261840820313 -8194.79296875 -431.9199829101563 -8196.4697265625 C -430.4562072753906 -8197.6318359375 -429.3654174804688 -8198.8037109375 -428.7895812988281 -8199.4716796875 C -432.6369934082031 -8203.91796875 -436.6785888671875 -8206.1728515625 -440.8041381835938 -8206.1728515625 C -444.6592407226563 -8206.1728515625 -447.9783630371094 -8204.17578125 -450.0838928222656 -8202.5 C -451.5667419433594 -8201.3154296875 -452.6483154296875 -8200.154296875 -453.21630859375 -8199.49609375 Z M -441.0060424804688 -8194.115234375 C -443.9663696289063 -8194.115234375 -446.3747863769531 -8196.5234375 -446.3747863769531 -8199.4833984375 C -446.3747863769531 -8202.4423828125 -443.9663696289063 -8204.8505859375 -441.0060424804688 -8204.8505859375 C -440.2880249023438 -8204.8505859375 -439.7038879394531 -8204.265625 -439.7038879394531 -8203.5478515625 C -439.7038879394531 -8202.8310546875 -440.2880249023438 -8202.248046875 -441.0060424804688 -8202.248046875 C -442.5303649902344 -8202.248046875 -443.7704772949219 -8201.0078125 -443.7704772949219 -8199.4833984375 C -443.7704772949219 -8197.958984375 -442.5303649902344 -8196.7197265625 -441.0060424804688 -8196.7197265625 C -439.4828491210938 -8196.7197265625 -438.24365234375 -8197.958984375 -438.24365234375 -8199.4833984375 C -438.24365234375 -8200.201171875 -437.6585693359375 -8200.7861328125 -436.9394226074219 -8200.7861328125 C -436.2214050292969 -8200.7861328125 -435.6372680664063 -8200.201171875 -435.6372680664063 -8199.4833984375 C -435.6372680664063 -8196.5234375 -438.0456848144531 -8194.115234375 -441.0060424804688 -8194.115234375 Z"/></g></g></svg>