<svg xmlns="http://www.w3.org/2000/svg" width="31.908" height="30"><g fill="#333"><path d="M26.648 14.7a.906.906 0 0 0-.92.92v12.571h-6.521v-5.133a.909.909 0 0 0-.886-.9h-4.715a.93.93 0 0 0-.936.9v5.133h-6.5V16.038a.903.903 0 0 0-1.806 0v13.074A.894.894 0 0 0 5.25 30h8.361a.894.894 0 0 0 .886-.888v-5.133h2.909v5.133a.9.9 0 0 0 .92.888h8.322a.894.894 0 0 0 .886-.888V15.62a.9.9 0 0 0-.886-.92z"/><path d="M31.648 15.417L24.391 8.13V3.161a.919.919 0 0 0-.936-.917.9.9 0 0 0-.886.917v3.146L16.583.286a.879.879 0 0 0-.619-.285.909.909 0 0 0-.652.285L.28 15.317a.861.861 0 0 0 0 1.27.862.862 0 0 0 1.271 0L15.964 2.208l14.38 14.515a.888.888 0 0 0 .652.235 1.01 1.01 0 0 0 .652-.235.949.949 0 0 0 0-1.306z"/></g></svg>
