<?xml version="1.0" encoding="utf-8"?>
<!-- Generator: Adobe Illustrator 24.0.2, SVG Export Plug-In . SVG Version: 6.00 Build 0)  -->
<svg version="1.1" id="Ebene_1" xmlns="http://www.w3.org/2000/svg" xmlns:xlink="http://www.w3.org/1999/xlink" x="0px" y="0px"
	 viewBox="0 0 38 38" style="enable-background:new 0 0 38 38;" xml:space="preserve">
<g>
	<g>
		<g>
			<g>
				<path d="M28.97,16.7c-0.22-0.21-0.56-0.21-0.77,0.01c-0.21,0.21-0.22,0.56-0.01,0.77c0.62,0.62,0.97,1.46,0.97,2.34
					c0,0.88-0.35,1.72-0.97,2.34c-0.14,0.14-0.2,0.34-0.15,0.54c0.05,0.19,0.2,0.34,0.39,0.39c0.19,0.05,0.4-0.01,0.54-0.15
					c0.83-0.83,1.29-1.95,1.29-3.13S29.8,17.53,28.97,16.7z"/>
				<path d="M30.53,15.14c-0.1-0.1-0.24-0.16-0.39-0.16c-0.15,0-0.29,0.06-0.39,0.16c-0.1,0.1-0.16,0.24-0.16,0.39
					c0,0.15,0.06,0.29,0.16,0.39c2.16,2.16,2.16,5.66,0,7.82c-0.22,0.22-0.21,0.57,0,0.78c0.22,0.22,0.57,0.21,0.78,0
					C33.12,21.93,33.12,17.73,30.53,15.14z"/>
				<path d="M25.75,13.34c-0.38-0.19-0.83-0.14-1.16,0.12l-3.93,3.06h-1.47c-1.22,0-2.21,0.99-2.21,2.21v2.21
					c0,1.22,0.99,2.21,2.21,2.21h1.47l3.93,3.06c0.33,0.26,0.78,0.31,1.16,0.12s0.62-0.57,0.62-0.99v-11
					C26.37,13.9,26.13,13.52,25.75,13.34z M20.3,22.04h-1.1c-0.61,0-1.1-0.49-1.1-1.11v-2.21c0-0.61,0.49-1.1,1.1-1.1h1.1V22.04z
					 M25.27,25.33l-3.86-3.01v-4.98l3.86-3.01V25.33z"/>
			</g>
			<path d="M30.14,14.98c-0.15,0-0.29,0.06-0.39,0.16c-0.1,0.1-0.16,0.24-0.16,0.39c0,0.15,0.06,0.29,0.16,0.39
				c2.16,2.16,2.16,5.66,0,7.82c-0.22,0.22-0.21,0.57,0,0.78c0.22,0.22,0.57,0.21,0.78,0c2.58-2.59,2.58-6.79,0-9.38
				C30.43,15.04,30.29,14.98,30.14,14.98z"/>
			<path d="M28.97,16.7c-0.22-0.21-0.56-0.21-0.77,0.01c-0.21,0.21-0.22,0.56-0.01,0.77c0.62,0.62,0.97,1.46,0.97,2.34
				c0,0.88-0.35,1.72-0.97,2.34c-0.14,0.14-0.2,0.34-0.15,0.54c0.05,0.19,0.2,0.34,0.39,0.39c0.19,0.05,0.4-0.01,0.54-0.15
				c0.83-0.83,1.29-1.95,1.29-3.13S29.8,17.53,28.97,16.7z"/>
		</g>
		<path d="M36.12,0H4.45C2,0,0.02,1.99,0.02,4.43V38h4.43v0h1.27v0h30.41c1.05,0,1.9-0.85,1.9-1.9V1.9C38.02,0.85,37.17,0,36.12,0z
			 M1.28,36.73V4.43c0-1.75,1.42-3.16,3.16-3.17v35.47H1.28z M36.75,36.1c0,0.35-0.28,0.63-0.63,0.63H5.71V1.27h30.41
			c0.35,0,0.63,0.28,0.63,0.63V36.1z"/>
	</g>
	<rect x="7.56" y="1.27" width="1.27" height="35.47"/>
	<rect x="10.56" y="1.27" width="1.27" height="35.47"/>
</g>
</svg>
