<svg xmlns="http://www.w3.org/2000/svg" width="31.806" height="30.5"><path fill="#fff" stroke="#fff" stroke-width=".5" d="M31.55 18.183a2.9 2.9 0 0 0-.849-2.053 3.238 3.238 0 0 0 .835-2.49 3.371 3.371 0 0 0-3.4-2.957h-8.055a18.754 18.754 0 0 0 1.038-5.217c0-2.829-2.4-5.217-3.913-5.217a4.1 4.1 0 0 0-2.363.794.652.652 0 0 0-.245.51v4.423l-3.758 8.139-.155.08v-.249a.652.652 0 0 0-.652-.652H3.511a3.264 3.264 0 0 0-3.261 3.26v10.435a3.264 3.264 0 0 0 3.261 3.261h3.913a3.268 3.268 0 0 0 3.069-2.156 8.5 8.5 0 0 0 3.453.852h11.972a3 3 0 0 0 2.956-2.277 2.944 2.944 0 0 0-.235-1.96 2.924 2.924 0 0 0 1.306-3.913 2.923 2.923 0 0 0 1.605-2.613zm-2.751 1.61a.652.652 0 0 0-.373 1.123 1.616 1.616 0 0 1-.93 2.79.652.652 0 0 0-.373 1.123 1.613 1.613 0 0 1 .477 1.554 1.688 1.688 0 0 1-1.681 1.255H13.95a6.183 6.183 0 0 1-3.451-1.114.653.653 0 0 0-1.114.462 1.959 1.959 0 0 1-1.957 1.957H3.511a1.959 1.959 0 0 1-1.961-1.954V16.554a1.959 1.959 0 0 1 1.957-1.957H9.38v.652a.655.655 0 0 0 .31.556.667.667 0 0 0 .634.027l1.3-.652a.651.651 0 0 0 .3-.309l3.913-8.478a.664.664 0 0 0 .06-.274V1.908a2.75 2.75 0 0 1 1.3-.353c.715 0 2.609 1.777 2.609 3.913a20.31 20.31 0 0 1-1.256 5.637.651.651 0 0 0 .609.884h8.975a2.059 2.059 0 0 1 2.1 1.773 1.949 1.949 0 0 1-.929 1.846.653.653 0 0 0 .044 1.136 1.615 1.615 0 0 1-.553 3.051z"/><path fill="#fff" stroke="#fff" stroke-width=".5" d="M10.032 14.598a.652.652 0 0 0-.652.652v11.739a.652.652 0 1 0 1.3 0V15.25a.652.652 0 0 0-.648-.652z"/></svg>
