<svg xmlns="http://www.w3.org/2000/svg" width="38" height="38" viewBox="0 0 38 38"><defs><style>.a{fill:#fff;}</style></defs><g transform="translate(-0.002 -11)"><g transform="translate(0.002 11)"><path class="a" d="M290.2,199.721a.634.634,0,0,0,.852.277,54.3,54.3,0,0,1,5.6-2.493.634.634,0,0,0-.383-1.208,54.313,54.313,0,0,0-5.8,2.573A.634.634,0,0,0,290.2,199.721Z" transform="translate(-268.597 -181.7)"/><path class="a" d="M290.764,97.668a.632.632,0,0,0,.287-.069,54.3,54.3,0,0,1,5.6-2.493.634.634,0,0,0-.382-1.208,54.305,54.305,0,0,0-5.8,2.573.633.633,0,0,0,.288,1.2Z" transform="translate(-268.597 -86.901)"/><path class="a" d="M37.369,9.5a.633.633,0,0,0-.633.633v24.7a1.9,1.9,0,0,1-1.9,1.9h-15.2V35.276a18.664,18.664,0,0,1,5.7-1.076,32.668,32.668,0,0,1,9.3,1.234.633.633,0,0,0,.833-.6V6.967a.632.632,0,0,0-.5-.618s-.5-.111-1.345-.267A.633.633,0,0,0,33.4,7.328c.324.06.595.112.8.154v26.51a35.768,35.768,0,0,0-8.867-1.058,19.9,19.9,0,0,0-6.309,1.213A14.837,14.837,0,0,0,13.3,32.933a42.679,42.679,0,0,0-9.5,1.085V7.457a41.688,41.688,0,0,1,9.5-1.124,13.732,13.732,0,0,1,5.067,1.044V32.3a.633.633,0,0,0,.959.543A72.509,72.509,0,0,1,31.235,27.2a.633.633,0,0,0,.433-.6V.634A.634.634,0,0,0,30.812.04,67.372,67.372,0,0,0,20.566,5.163a.633.633,0,1,0,.671,1.074A67.692,67.692,0,0,1,30.4,1.56V26.147A70.976,70.976,0,0,0,19.635,31.2V6.967a.634.634,0,0,0-.35-.567A14.665,14.665,0,0,0,13.3,5.067,41.105,41.105,0,0,0,2.994,6.358a.633.633,0,0,0-.459.609V34.833a.633.633,0,0,0,.633.633.624.624,0,0,0,.174-.025A40.684,40.684,0,0,1,13.3,34.2a13.7,13.7,0,0,1,5.067,1.044v1.489H3.169a1.9,1.9,0,0,1-1.9-1.9v-24.7a.633.633,0,0,0-1.267,0v24.7A3.17,3.17,0,0,0,3.169,38H34.835A3.17,3.17,0,0,0,38,34.833v-24.7A.633.633,0,0,0,37.369,9.5Z" transform="translate(-0.002 0)"/><path class="a" d="M290.2,148.521a.634.634,0,0,0,.852.277,54.3,54.3,0,0,1,5.6-2.493.634.634,0,0,0-.383-1.208,54.311,54.311,0,0,0-5.8,2.573A.634.634,0,0,0,290.2,148.521Z" transform="translate(-268.597 -134.3)"/><path class="a" d="M290.2,250.921a.634.634,0,0,0,.852.277,54.291,54.291,0,0,1,5.6-2.493.634.634,0,0,0-.383-1.208,54.309,54.309,0,0,0-5.8,2.573A.634.634,0,0,0,290.2,250.921Z" transform="translate(-268.597 -229.1)"/><path class="a" d="M94.344,153.995a20.1,20.1,0,0,0-8.542.3.633.633,0,0,0,.163,1.245.644.644,0,0,0,.165-.021,19.086,19.086,0,0,1,7.925-.292.633.633,0,1,0,.289-1.233Z" transform="translate(-79 -142.241)"/><path class="a" d="M94.344,205.2a20.113,20.113,0,0,0-8.542.3.633.633,0,0,0,.163,1.245.645.645,0,0,0,.165-.022,19.087,19.087,0,0,1,7.925-.292.633.633,0,1,0,.289-1.233Z" transform="translate(-79 -189.645)"/><path class="a" d="M290.2,302.121a.634.634,0,0,0,.852.277,54.326,54.326,0,0,1,5.6-2.493.634.634,0,0,0-.383-1.208,54.312,54.312,0,0,0-5.8,2.573A.634.634,0,0,0,290.2,302.121Z" transform="translate(-268.597 -276.5)"/><path class="a" d="M94.344,256.4a20.1,20.1,0,0,0-8.542.3.634.634,0,0,0,.163,1.246.641.641,0,0,0,.165-.022,19.087,19.087,0,0,1,7.925-.292.633.633,0,1,0,.289-1.233Z" transform="translate(-79 -237.044)"/><path class="a" d="M94.344,358.795a20.1,20.1,0,0,0-8.542.3.634.634,0,0,0,.163,1.246.643.643,0,0,0,.165-.022,19.087,19.087,0,0,1,7.925-.292.633.633,0,1,0,.289-1.233Z" transform="translate(-79 -331.841)"/><path class="a" d="M94.344,307.594a20.089,20.089,0,0,0-8.542.3.634.634,0,0,0,.163,1.246.643.643,0,0,0,.165-.022,19.086,19.086,0,0,1,7.925-.292.633.633,0,1,0,.289-1.233Z" transform="translate(-79 -284.44)"/></g></g></svg>
