<svg xmlns="http://www.w3.org/2000/svg" width="38" height="38"><defs/><path d="M21.603 18.021a.634.634 0 0 0 .852.277 54.3 54.3 0 0 1 5.6-2.493.634.634 0 0 0-.383-1.208 54.313 54.313 0 0 0-5.8 2.573.634.634 0 0 0-.269.851zM22.167 10.767a.632.632 0 0 0 .287-.069 54.3 54.3 0 0 1 5.6-2.493.634.634 0 0 0-.382-1.208 54.305 54.305 0 0 0-5.8 2.573.633.633 0 0 0 .288 1.2z" class="a"/><path d="M37.367 9.5a.633.633 0 0 0-.633.633v24.7a1.9 1.9 0 0 1-1.9 1.9h-15.2v-1.457a18.664 18.664 0 0 1 5.7-1.076 32.668 32.668 0 0 1 9.3 1.234.633.633 0 0 0 .833-.6V6.967a.632.632 0 0 0-.5-.618s-.5-.111-1.345-.267a.633.633 0 0 0-.224 1.246c.324.06.595.112.8.154v26.51a35.768 35.768 0 0 0-8.867-1.058 19.9 19.9 0 0 0-6.309 1.213 14.837 14.837 0 0 0-5.724-1.214 42.679 42.679 0 0 0-9.5 1.085V7.457a41.688 41.688 0 0 1 9.5-1.124 13.732 13.732 0 0 1 5.067 1.044V32.3a.633.633 0 0 0 .959.543A72.509 72.509 0 0 1 31.233 27.2a.633.633 0 0 0 .433-.6V.634A.634.634 0 0 0 30.81.04a67.372 67.372 0 0 0-10.246 5.123.633.633 0 1 0 .671 1.074 67.692 67.692 0 0 1 9.163-4.677v24.587A70.976 70.976 0 0 0 19.633 31.2V6.967a.634.634 0 0 0-.35-.567 14.665 14.665 0 0 0-5.985-1.333A41.105 41.105 0 0 0 2.992 6.358a.633.633 0 0 0-.459.609v27.866a.633.633 0 0 0 .633.633.624.624 0 0 0 .174-.025 40.684 40.684 0 0 1 9.958-1.241 13.7 13.7 0 0 1 5.067 1.044v1.489H3.167a1.9 1.9 0 0 1-1.9-1.9v-24.7a.633.633 0 0 0-1.267 0v24.7A3.17 3.17 0 0 0 3.167 38h31.666a3.17 3.17 0 0 0 3.165-3.167v-24.7a.633.633 0 0 0-.631-.633z" class="a"/><path d="M21.603 14.221a.634.634 0 0 0 .852.277 54.3 54.3 0 0 1 5.6-2.493.634.634 0 0 0-.383-1.208 54.311 54.311 0 0 0-5.8 2.573.634.634 0 0 0-.269.851zM21.603 21.821a.634.634 0 0 0 .852.277 54.291 54.291 0 0 1 5.6-2.493.634.634 0 0 0-.383-1.208 54.309 54.309 0 0 0-5.8 2.573.634.634 0 0 0-.269.851zM15.344 11.754a20.1 20.1 0 0 0-8.542.3.633.633 0 0 0 .163 1.245.644.644 0 0 0 .165-.021 19.086 19.086 0 0 1 7.925-.292.633.633 0 1 0 .289-1.233zM15.344 15.555a20.113 20.113 0 0 0-8.542.3.633.633 0 0 0 .163 1.245.645.645 0 0 0 .165-.022 19.087 19.087 0 0 1 7.925-.292.633.633 0 1 0 .289-1.233zM21.603 25.621a.634.634 0 0 0 .852.277 54.326 54.326 0 0 1 5.6-2.493.634.634 0 0 0-.383-1.208 54.312 54.312 0 0 0-5.8 2.573.634.634 0 0 0-.269.851zM15.344 19.356a20.1 20.1 0 0 0-8.542.3.634.634 0 0 0 .163 1.246.641.641 0 0 0 .165-.022 19.087 19.087 0 0 1 7.925-.292.633.633 0 1 0 .289-1.233zM15.344 26.954a20.1 20.1 0 0 0-8.542.3.634.634 0 0 0 .163 1.246.643.643 0 0 0 .165-.022 19.087 19.087 0 0 1 7.925-.292.633.633 0 1 0 .289-1.233zM15.344 23.154a20.089 20.089 0 0 0-8.542.3.634.634 0 0 0 .163 1.246.643.643 0 0 0 .165-.022 19.086 19.086 0 0 1 7.925-.292.633.633 0 1 0 .289-1.233z" class="a"/></svg>
