<?xml version="1.0" encoding="iso-8859-1"?>
<!-- Generator: Adobe Illustrator 17.1.0, SVG Export Plug-In . SVG Version: 6.00 Build 0)  -->
<!DOCTYPE svg PUBLIC "-//W3C//DTD SVG 1.1//EN" "http://www.w3.org/Graphics/SVG/1.1/DTD/svg11.dtd">
<svg version="1.1" id="Capa_1" xmlns="http://www.w3.org/2000/svg" xmlns:xlink="http://www.w3.org/1999/xlink" x="0px" y="0px"
	 viewBox="0 0 445.156 445.156" style="enable-background:new 0 0 445.156 445.156;" xml:space="preserve">
<g>
	<path d="M106.72,273.402c-0.541-4.106-4.307-6.995-8.415-6.457l-10.855,1.429L63.3,84.943l63.991-8.425
		c4.106-0.541,6.998-4.308,6.457-8.415c-0.541-4.107-4.313-6.998-8.415-6.457L53.906,71.05c-1.972,0.26-3.76,1.292-4.971,2.87
		s-1.745,3.573-1.486,5.545l26.107,198.303c0.26,1.972,1.292,3.76,2.87,4.971c1.317,1.011,2.924,1.55,4.566,1.55
		c0.325,0,0.653-0.021,0.979-0.064l18.292-2.408C104.369,281.276,107.26,277.509,106.72,273.402z"/>
	<path d="M84.491,371.871l-23.356,3.075L18.422,50.506l262.747-34.591l4.536,34.454c0.541,4.106,4.308,6.997,8.414,6.457
		c4.107-0.541,6.998-4.308,6.457-8.415l-5.515-41.89c-0.26-1.972-1.292-3.76-2.87-4.971c-1.577-1.21-3.569-1.745-5.544-1.486
		L9.028,36.613c-1.972,0.26-3.76,1.292-4.971,2.87s-1.745,3.573-1.486,5.545L47.242,384.34c0.497,3.774,3.72,6.522,7.427,6.522
		c0.326,0,0.656-0.021,0.988-0.065l30.792-4.054c4.106-0.541,6.998-4.308,6.457-8.415C92.365,374.222,88.595,371.333,84.491,371.871
		z"/>
	<path d="M164.881,312.413l198.303,26.107c0.332,0.043,0.661,0.065,0.988,0.065c3.706,0,6.929-2.748,7.426-6.522l26.107-198.303
		c0.26-1.972-0.274-3.967-1.485-5.545c-1.211-1.578-2.999-2.61-4.972-2.87L192.946,99.238c-1.974-0.26-3.967,0.275-5.545,1.486
		c-1.578,1.211-2.61,2.999-2.87,4.971l-26.107,198.303C157.883,308.105,160.775,311.872,164.881,312.413z M198.424,115.089
		l183.431,24.149l-24.149,183.431L174.275,298.52L198.424,115.089z"/>
	<path d="M436.128,90.909L158.509,54.359c-1.975-0.259-3.967,0.275-5.545,1.486c-1.578,1.211-2.61,2.999-2.87,4.971l-44.671,339.312
		c-0.259,1.972,0.275,3.967,1.486,5.545c1.211,1.578,2.999,2.61,4.971,2.87l277.62,36.549c0.326,0.043,0.653,0.064,0.979,0.064
		c1.642,0,3.249-0.54,4.565-1.55c1.578-1.211,2.61-2.999,2.87-4.971l44.671-339.312C443.126,95.217,440.235,91.449,436.128,90.909z
		 M384.021,429.242L121.274,394.65l42.714-324.44l262.747,34.591L384.021,429.242z"/>
</g>
<g>
</g>
<g>
</g>
<g>
</g>
<g>
</g>
<g>
</g>
<g>
</g>
<g>
</g>
<g>
</g>
<g>
</g>
<g>
</g>
<g>
</g>
<g>
</g>
<g>
</g>
<g>
</g>
<g>
</g>
</svg>
