<svg xmlns="http://www.w3.org/2000/svg" width="26.898" height="30" viewBox="0 0 26.898 30"><defs><style>.a{fill:#fff;}</style></defs><g transform="translate(-1080.703 -566.446)"><path class="a" d="M1105.894,578.5l-20.085-11.6a3.4,3.4,0,0,0-5.105,2.947V593.04a3.4,3.4,0,0,0,5.105,2.947l20.085-11.589a3.4,3.4,0,0,0,0-5.895Zm-1.627,3.078-20.08,11.593a.152.152,0,0,1-.206-.057.16.16,0,0,1-.02-.073V569.858a.136.136,0,0,1,.076-.13.149.149,0,0,1,.077-.023.135.135,0,0,1,.073.023l20.08,11.593a.151.151,0,0,1,0,.262Z" transform="translate(0 0)"/></g></svg>