<svg xmlns="http://www.w3.org/2000/svg" width="30" height="30" viewBox="0 0 30 30"><defs><style>.a{fill:#fff;}</style></defs><g transform="translate(-1133.743 -565.129)"><g transform="translate(1133.743 565.129)"><path class="a" d="M1161.733,572.628a15,15,0,1,0,2.01,7.47A15,15,0,0,0,1161.733,572.628Zm-.01,10.973a13.451,13.451,0,1,1-9.5-16.449,13.436,13.436,0,0,1,9.5,16.449v0Z" transform="translate(-1133.743 -565.129)"/></g><g transform="translate(1143.847 572.927)"><path class="a" d="M1155.938,578.712l-9.642-5.566a1.634,1.634,0,0,0-2.452,1.415v11.132a1.632,1.632,0,0,0,2.452,1.415l9.642-5.566a1.633,1.633,0,0,0,0-2.83Zm-.781,1.478-9.642,5.566a.073.073,0,0,1-.1-.025.074.074,0,0,1-.01-.038V574.561a.063.063,0,0,1,.036-.063.07.07,0,0,1,.037-.011.061.061,0,0,1,.035.011l9.642,5.566a.073.073,0,0,1,0,.126Z" transform="translate(-1143.844 -572.926)"/></g><g transform="translate(1149.44 568.578)"><path class="a" d="M1157.96,573a11.778,11.778,0,0,0-7.66-4.422.781.781,0,0,0-.211,1.547,10.2,10.2,0,0,1,6.637,3.83.781.781,0,0,0,1.235-.956Z" transform="translate(-1149.436 -568.577)"/></g></g></svg>