<svg xmlns="http://www.w3.org/2000/svg" width="30" height="20.247" viewBox="0 0 30 20.247"><defs><style>.a{fill:#333;}</style></defs><path class="a" d="M212.444,570.366a.843.843,0,0,0-.674-.421c-.008-.018-.1-.2-.371-.717a.78.78,0,0,0-1.052-.333l-.377.2-.387-.667a.884.884,0,0,0-.976-.417l-5.657,1.417a8.384,8.384,0,0,0-4.077,2.384.548.548,0,0,0-.553.182,8.979,8.979,0,0,0-.679.924,2.441,2.441,0,0,0-.136.241,8.439,8.439,0,0,0-5.117-3.731l-5.659-1.418a.882.882,0,0,0-.976.417l-.387.667-.377-.192a.781.781,0,0,0-1.051.333c0,.006-.333.646-.371.717a.841.841,0,0,0-.674.421,1.574,1.574,0,0,0,.52,2.148l4.068,2.539a.439.439,0,1,0,.526-.7.36.36,0,0,0-.061-.038l-4.067-2.542a.7.7,0,0,1-.241-.937l13.59,7.045V580.1l-7.542-4.7a.439.439,0,1,0-.465.746l4.687,2.925-4.479,2.32a2.149,2.149,0,0,0-1.128,1.558,2.231,2.231,0,0,1-.7,1.291l-.672.5a2.605,2.605,0,0,0-.812,3.183.534.534,0,0,0,.709.259.475.475,0,0,0,.058-.031l10.346-6.457v.437a.44.44,0,0,0,.879,0v-7.785a1.76,1.76,0,0,1,.272-.951l.04-.062v10.961a.438.438,0,0,0-.312,0v-.114a.44.44,0,1,0-.879,0v.857a.5.5,0,0,0,.8.4l.234-.178.234.178a.5.5,0,0,0,.8-.4v-2.6l9.155,5.717a.536.536,0,0,0,.767-.228,2.605,2.605,0,0,0-.812-3.183l-.672-.5a2.232,2.232,0,0,1-.7-1.291,2.149,2.149,0,0,0-1.128-1.558l-4.479-2.327,10.494-6.547a1.574,1.574,0,0,0,.521-2.151Zm-25.928-1.507,5.657,1.417a7.613,7.613,0,0,1,5.056,4.225v.124a12.423,12.423,0,0,0-6.588-4.16.439.439,0,0,0-.213.849,11.547,11.547,0,0,1,5.647,3.323l-9.926-5.142Zm-1.842.862,12.556,6.51v.66L184.4,570.24Zm2.115,17.446a1.726,1.726,0,0,1,.662-1.727c.727-.538.7-.514.72-.533a3.112,3.112,0,0,0,1-1.819,1.268,1.268,0,0,1,.667-.917l4.941-2.562,2.057,1.288Zm16.375-16.89,5.659-1.417.367.635-3.39,1.758a.439.439,0,1,0,.4.78l4.459-2.312.27.52L199.3,576.271v-.659l5.083-2.636a.439.439,0,0,0-.4-.78l-4.679,2.426V574.6a11.551,11.551,0,0,1,5.611-3.29.439.439,0,0,0-.213-.852,12.425,12.425,0,0,0-5.4,2.9v-.719a7.514,7.514,0,0,1,3.865-2.368Zm3,12.81a3.112,3.112,0,0,0,1,1.819c.022.02-.031-.02.719.533a1.726,1.726,0,0,1,.662,1.727L199.3,581.4v-2.445l6.2,3.216a1.267,1.267,0,0,1,.667.917Zm5.289-11.315L200.523,578.6l-1.223-.634v-.7l12.4-6.428A.7.7,0,0,1,211.458,571.771Z" transform="translate(-182.67 -567.98)"/></svg>