<svg xmlns="http://www.w3.org/2000/svg" width="25.047" height="30" viewBox="0 0 25.047 30"><defs><style>.a{fill:#fff;}</style></defs><g transform="translate(-354.617 -564.127)"><g transform="translate(359.931 565.167)"><path class="a" d="M362.015,566.5h0a.633.633,0,1,0-.634-.633.632.632,0,0,0,.634.633h0Z" transform="translate(-360.355 -565.236)"/><path class="a" d="M375.446,580.447a6.17,6.17,0,0,0-11.643-4.062,4.114,4.114,0,0,0-3.517,4.066v5.6a6.173,6.173,0,0,0,11.647,4.066,4.114,4.114,0,0,0,3.517-4.066Zm-1.266,5.6a2.844,2.844,0,0,1-2.841,2.841.633.633,0,0,0-.633.633h0a2.841,2.841,0,0,1-5.683,0,.633.633,0,0,0-.633-.633h0a2.845,2.845,0,0,1-2.841-2.841v-5.6a2.845,2.845,0,0,1,2.841-2.841.633.633,0,0,0,.633-.633h0a2.841,2.841,0,0,1,5.683-.006v.006a.633.633,0,0,0,.633.633h0a2.844,2.844,0,0,1,2.841,2.841Z" transform="translate(-360.286 -565.714)"/><path class="a" d="M368.156,580.083a3.88,3.88,0,1,0,3.881,3.88A3.88,3.88,0,0,0,368.156,580.083Zm0,6.656a2.771,2.771,0,1,1,2.771-2.771h0a2.774,2.774,0,0,1-2.771,2.766Z" transform="translate(-360.536 -566.165)"/></g><path class="a" d="M354.617,570.059v24.068h1.318V570.059a.4.4,0,0,1,.4-.4H376.9a2.75,2.75,0,0,0,1.45-.411v24.874h1.318V566.9a2.771,2.771,0,0,0-2.768-2.768h-21.62a.659.659,0,0,0,0,1.318h.4v3.033A1.717,1.717,0,0,0,354.617,570.059Zm2.374-2.5h1.977a.659.659,0,0,0,0-1.318H356.99v-.791H376.9a1.45,1.45,0,1,1,0,2.9H356.99Z" transform="translate(0 0)"/></g></svg>