<svg xmlns="http://www.w3.org/2000/svg" width="31.476" height="30"><path d="M15.738 20.41a10.2 10.2 0 1 1 10.23-10.18 10.253 10.253 0 0 1-10.23 10.18zm0-19.426a9.221 9.221 0 1 0 9.246 9.2 9.267 9.267 0 0 0-9.246-9.2z"/><path d="M15.737 4.131a.423.423 0 0 0-.393.393v5.7h.787v-5.7a.388.388 0 0 0-.394-.393zM20.803 15.246a.3.3 0 0 0 0-.393l-4.623-4.525-.393.393 4.574 4.574a.316.316 0 0 0 .442-.049z"/><path d="M11.262 10.229a.423.423 0 0 0 .393.393h4.426v-.787h-4.426a.388.388 0 0 0-.393.394zM7.82 9.886h.984v.639H7.82zM22.672 9.886h.984v.639h-.984zM9.887 13.972l-.852.492-.32-.553.852-.492zM22.77 6.535l-.852.492-.32-.553.852-.492zM12.529 16.392l-.492.852-.553-.32.492-.852zM19.981 3.544l-.492.852-.554-.32.493-.852zM15.393 17.164h.639v.984h-.639zM15.393 2.312h.639v.984h-.639zM19.984 16.931l-.553.32-.492-.853.553-.32zM12.547 4.047l-.554.32-.491-.853.553-.32zM22.733 13.894l-.32.553-.852-.491.32-.554z"/><g transform="translate(8.712 5.952)"><path d="M1.172.492l-.32.553L0 .554.32 0z"/><circle cx="1.082" cy="1.082" r="1.082" transform="translate(5.944 3.196)"/></g><path d="M30.984 30H4.23a4.23 4.23 0 1 1 0-8.459h26.754a.492.492 0 1 1 0 .984 3.246 3.246 0 1 0 0 6.492.465.465 0 0 1 .492.492.493.493 0 0 1-.492.491zM4.23 22.475a3.243 3.243 0 0 0-3.246 3.246 3.285 3.285 0 0 0 3.246 3.3h24a4.261 4.261 0 0 1-1.525-3.246 4.185 4.185 0 0 1 1.525-3.246h-24z"/><path d="M27.25 26.263H5.95a.492.492 0 0 1 0-.984h21.246a.465.465 0 0 1 .492.492.452.452 0 0 1-.438.492z"/></svg>
