<svg xmlns="http://www.w3.org/2000/svg" width="30" height="22.221" viewBox="0 0 30 22.221"><defs><style>.a{fill:#fff;}</style></defs><g transform="translate(-1469.351 -569.758)"><path class="a" d="M1482.664,570.416a1.42,1.42,0,0,0-1.448.02.473.473,0,0,0-.061.044l-6.351,5.373h-4.984a.469.469,0,0,0-.469.467h0v8.906a.47.47,0,0,0,.469.468h4.973l6.342,5.829a.483.483,0,0,0,.075.056,1.418,1.418,0,0,0,1.448.02,1.461,1.461,0,0,0,.75-1.292v-18.6A1.464,1.464,0,0,0,1482.664,570.416Z" transform="translate(0 0.033)"/><path class="a" d="M1494.317,580.65a9.13,9.13,0,0,0-6.2-8.647.469.469,0,0,0-.335.876l.034.012a8.193,8.193,0,0,1,.011,15.517.469.469,0,0,0,.151.913.451.451,0,0,0,.151-.026A9.134,9.134,0,0,0,1494.317,580.65Z" transform="translate(1.293 0.158)"/><path class="a" d="M1490.613,569.8a.469.469,0,1,0-.393.852l.027.012a11.016,11.016,0,0,1-.322,20.415.469.469,0,0,0,.339.874,11.954,11.954,0,0,0,.349-22.153Z" transform="translate(1.448 0)"/><path class="a" d="M1490.27,580.478a6.354,6.354,0,0,0-4.569-6.076.47.47,0,0,0-.3.89l.04.011a5.385,5.385,0,0,1,0,10.349.469.469,0,0,0,.13.919.443.443,0,0,0,.13-.018A6.356,6.356,0,0,0,1490.27,580.478Z" transform="translate(1.122 0.33)"/></g></svg>