<svg xmlns="http://www.w3.org/2000/svg" width="30" height="30"><defs><clipPath id="a"><path fill="#333" stroke="#333" stroke-width=".5" d="M6134 317h30v30h-30z"/></clipPath></defs><g clip-path="url(#a)" transform="translate(-6133.999 -317)"><path fill="#333" stroke="#333" stroke-width=".5" d="M6163.828 322.53a.669.669 0 0 0-.611-.153l-1.017.357a6.977 6.977 0 0 0 1.273-2.19.526.526 0 0 0-.1-.611.542.542 0 0 0-.611-.1 37.3 37.3 0 0 1-3.666 1.426c0 .051-.051 0-.1 0a10.6 10.6 0 0 0-4.226-1.477 6.731 6.731 0 0 0-6.518 6.823v.2c-5.3-1.018-8.2-2.546-11.355-5.856l-.509-.509-.306.611c-1.731 3.31-.509 6.314 1.477 8.351a4.158 4.158 0 0 1-2.088-.917.61.61 0 0 0-.713-.051.627.627 0 0 0-.255.662 9.992 9.992 0 0 0 4.43 5.5 4.084 4.084 0 0 1-2.444-.611.718.718 0 0 0-.713.051.557.557 0 0 0-.2.662 6.138 6.138 0 0 0 5.55 4.328 12.494 12.494 0 0 1-6.426 1.632.725.725 0 0 0-.662.458.708.708 0 0 0 .2.764c1.833 1.477 5.907 2.342 10.948 2.342 8.962 0 16.294-7.994 16.294-17.822v-.153a5.044 5.044 0 0 0 2.5-3.106.669.669 0 0 0-.152-.611zm-3.055 2.9l-.306.1v.866c0 9.267-6.874 16.8-15.276 16.8-4.634 0-7.74-.764-9.42-1.579a12.255 12.255 0 0 0 7.129-2.6l1.273-.917h-1.528c-2.9 0-4.685-.815-5.7-2.75a8.015 8.015 0 0 0 2.953.255 9.809 9.809 0 0 1 1.222-.051l.153-1.018a9.2 9.2 0 0 1-5.347-4.634 7.677 7.677 0 0 0 3.157.56h1.577l-1.273-.917c-1.069-.764-4.226-3.463-2.7-7.333 3.259 3.208 6.365 4.685 11.966 5.7l.611.1v-1.408a5.711 5.711 0 0 1 5.5-5.8c1.171-.051 3.106 1.018 3.666 1.324a1.167 1.167 0 0 0 .917.1c.764-.255 1.68-.611 2.7-1.018a8.138 8.138 0 0 1-1.884 2.139.613.613 0 0 0-.153.713.505.505 0 0 0 .662.255l1.986-.662a3.6 3.6 0 0 1-1.885 1.777z"/></g></svg>
