<svg xmlns="http://www.w3.org/2000/svg" width="30" height="24.476" viewBox="0 0 30 24.476"><defs><style>.a{fill:#fff;}</style></defs><g transform="translate(-850.898 -564.629)"><path class="a" d="M869.031,587.15l-6.474-3.761a1.024,1.024,0,0,0-1.021,0,.99.99,0,0,0-.5.869v7.522a.99.99,0,0,0,.5.869,1.013,1.013,0,0,0,.508.136v0a1.024,1.024,0,0,0,.512-.137l6.474-3.761a1,1,0,0,0,0-1.732Zm-7,4.63.021-7.523,6.476,3.761Z" transform="translate(-2.133 -3.919)"/><path class="a" d="M868.581,574.663a3.755,3.755,0,0,0,3.75-3.75.5.5,0,1,0-1,0,2.75,2.75,0,1,1-2.75-2.75.5.5,0,0,0,0-1,3.75,3.75,0,0,0,0,7.5Z" transform="translate(-2.932 -0.533)"/><path class="a" d="M857.2,575.329h.089a2.5,2.5,0,0,0-.088-5,.5.5,0,1,0,0,1,1.5,1.5,0,1,1-1.5,1.5.5.5,0,1,0-1,0A2.5,2.5,0,0,0,857.2,575.329Z" transform="translate(-0.8 -1.199)"/><path class="a" d="M880.345,576.3a1.14,1.14,0,0,0-1.142-.028l-5.3,3.154v-2.7a1.6,1.6,0,0,0-1.6-1.6h-3.42a5.748,5.748,0,1,0-8.819-6.1,4.5,4.5,0,1,0-6.492,6.1h-1.079a1.6,1.6,0,0,0-1.6,1.595V589.1h1v-12.38a.6.6,0,0,1,.6-.6H872.3a.6.6,0,0,1,.6.6V589.1h1v-.268l.449.268h1.956l-2.405-1.43v-7.087l5.786-3.442a.135.135,0,0,1,.137.006.158.158,0,0,1,.079.143V589.1h1v-11.81A1.16,1.16,0,0,0,880.345,576.3Zm-14.7-10.67a4.757,4.757,0,0,1,4.749,4.751v0a4.751,4.751,0,1,1-4.749-4.752Zm-12.751,6a3.5,3.5,0,1,1,3.5,3.5A3.5,3.5,0,0,1,852.9,571.63Zm6.321,3.5a4.513,4.513,0,0,0,1.4-1.964,5.778,5.778,0,0,0,1.79,1.964Z" transform="translate(0)"/></g></svg>