<svg xmlns="http://www.w3.org/2000/svg" width="30" height="22.786" viewBox="0 0 30 22.786"><defs><style>.a{fill:#fff;}</style></defs><g transform="translate(-905.915 -565.128)"><path class="a" d="M942.871,588.128h-6.076a.38.38,0,0,0,0,.759h6.076a.38.38,0,1,0,0-.759Z" transform="translate(-7.336 -5.532)"/><path class="a" d="M942.811,580.128h-6.266a.38.38,0,0,0,0,.76h6.266a.38.38,0,0,0,0-.76Z" transform="translate(-7.275 -3.608)"/><path class="a" d="M940.826,573.128H928.295a.38.38,0,0,0,0,.76h12.532a.38.38,0,0,0,0-.76Z" transform="translate(-5.291 -1.924)"/><path class="a" d="M935.535,565.887a.38.38,0,1,0,0-.759h-29.24a.38.38,0,1,0,0,.759Z" transform="translate(0)"/><path class="a" d="M919.317,586.431l-4.509-2.618a.71.71,0,0,0-.71,0,.687.687,0,0,0-.35.6v5.233a.689.689,0,0,0,.35.608.707.707,0,0,0,.71,0l4.509-2.618a.7.7,0,0,0,0-1.205Zm-4.873,3.226.015-5.24,4.508,2.622Z" transform="translate(-1.884 -4.471)"/><path class="a" d="M921.357,574.333a.348.348,0,0,0-.348.349,1.915,1.915,0,1,1-1.915-1.915.348.348,0,0,0,0-.7h-.09a2.612,2.612,0,1,0,2.7,2.611A.348.348,0,0,0,921.357,574.333Z" transform="translate(-2.531 -1.67)"/><path class="a" d="M910.907,574.362a.348.348,0,1,0,0,.7,1.044,1.044,0,1,1-1.044,1.044.349.349,0,0,0-.7,0,1.744,1.744,0,0,0,1.741,1.741h.073a1.741,1.741,0,0,0-.072-3.481Z" transform="translate(-0.782 -2.221)"/><path class="a" d="M926.914,578.361a.792.792,0,0,0-.8-.02l-3.691,2.194V578.66a1.113,1.113,0,0,0-1.111-1.111h-2.383a4,4,0,1,0-6.133-4.24,3.126,3.126,0,1,0-4.5,4.24h-.772a1.112,1.112,0,0,0-1.111,1.11v10.311a1.09,1.09,0,0,0,.017.173h.719a.414.414,0,0,1-.04-.173v-10.31a.414.414,0,0,1,.415-.415h13.79a.415.415,0,0,1,.415.415v10.311a.4.4,0,0,1-.041.173h.719a1.183,1.183,0,0,0,.018-.172v-1.88l3.452,2.053h1.187a.81.81,0,0,0,.234-.57v-9.517A.808.808,0,0,0,926.914,578.361Zm-16.669-.814a2.436,2.436,0,1,1,2.436-2.436A2.438,2.438,0,0,1,910.245,577.547Zm1.941,0a3.121,3.121,0,0,0,1-1.4,4.008,4.008,0,0,0,1.247,1.4Zm1.191-3.308a3.307,3.307,0,1,1,3.307,3.307A3.307,3.307,0,0,1,913.377,574.24ZM926.6,588.571a.113.113,0,0,1-.054.1.093.093,0,0,1-.089.008l-4.031-2.395v-4.937l4.025-2.4a.091.091,0,0,1,.095,0,.113.113,0,0,1,.054.1Z" transform="translate(-0.12 -1.229)"/></g></svg>