<svg xmlns="http://www.w3.org/2000/svg" width="100" height="100" viewBox="0 0 100 100"><defs><style>.a{fill:#ededed;}.b{fill:#55cd6c;}.c{fill:#fefefe;}</style></defs><path class="a" d="M0,100,6.9,75A49.733,49.733,0,0,1,49.828,0C77.241,0,100,22.414,100,49.655S77.241,100,49.828,100c-8.621,0-16.9-2.759-24.31-6.9Z"/><path class="b" d="M62.414,119.655l1.552.862A40.937,40.937,0,0,0,85.517,126.9C108.1,126.9,126.9,108.1,126.9,85.172S108.1,44.138,85.345,44.138A41.059,41.059,0,0,0,44.138,85.172a41.767,41.767,0,0,0,6.379,22.241l1.035,1.552-3.965,14.483Z" transform="translate(-35.517 -35.517)"/><path class="c" d="M140.928,135.234l-3.276-.172a3.915,3.915,0,0,0-2.759,1.035c-1.552,1.379-4.138,3.965-4.828,7.414-1.207,5.172.69,11.379,5.172,17.586s13.1,16.207,28.276,20.517a14.007,14.007,0,0,0,11.724-1.379,10.173,10.173,0,0,0,4.483-6.552l.517-2.414a1.733,1.733,0,0,0-.862-1.9l-10.862-5a1.645,1.645,0,0,0-2.069.517l-4.31,5.517a1.341,1.341,0,0,1-1.379.345c-2.931-1.035-12.759-5.172-18.1-15.517a1.3,1.3,0,0,1,.172-1.379l4.138-4.655a2.124,2.124,0,0,0,.345-1.724l-5-11.207a1.5,1.5,0,0,0-1.38-1.035" transform="translate(-104.376 -108.683)"/></svg>